<svg xmlns="http://www.w3.org/2000/svg" version="1.1" xmlns:xlink="http://www.w3.org/1999/xlink" xmlns:svgjs="http://svgjs.com/svgjs" width="1920" height="1080" preserveAspectRatio="none" viewBox="0 0 1920 1080"><g mask="url(&quot;#SvgjsMask1600&quot;)" fill="none"><rect width="1920" height="1080" x="0" y="0" fill="url(#SvgjsLinearGradient1601)"></rect><path d="M0 0L666.58 0L0 446.49z" fill="rgba(255, 255, 255, .1)"></path><path d="M0 446.49L666.58 0L935.35 0L0 473.52z" fill="rgba(255, 255, 255, .075)"></path><path d="M0 473.52L935.35 0L1191.27 0L0 534.38z" fill="rgba(255, 255, 255, .05)"></path><path d="M0 534.38L1191.27 0L1498.9099999999999 0L0 665.9z" fill="rgba(255, 255, 255, .025)"></path><path d="M1920 1080L1651.22 1080L1920 551.91z" fill="rgba(0, 0, 0, .1)"></path><path d="M1920 551.91L1651.22 1080L1215.12 1080L1920 491.9z" fill="rgba(0, 0, 0, .075)"></path><path d="M1920 491.9L1215.12 1080L914.3 1080L1920 257.98z" fill="rgba(0, 0, 0, .05)"></path><path d="M1920 257.98L914.3 1080L291.26 1080L1920 241.38000000000002z" fill="rgba(0, 0, 0, .025)"></path></g><defs><mask id="SvgjsMask1600"><rect width="1920" height="1080" fill="#ffffff"></rect></mask><linearGradient x1="50%" y1="100%" x2="50%" y2="0%" gradientUnits="userSpaceOnUse" id="SvgjsLinearGradient1601"><stop stop-color="rgba(8, 163, 152, 1)" offset="0"></stop><stop stop-color="rgba(13, 75, 71, 1)" offset="0.83"></stop><stop stop-color="rgba(13, 75, 71, 1)" offset="0.84"></stop></linearGradient></defs></svg>