<svg xmlns="http://www.w3.org/2000/svg" version="1.1" xmlns:xlink="http://www.w3.org/1999/xlink" xmlns:svgjs="http://svgjs.com/svgjs" width="1920" height="1080" preserveAspectRatio="none" viewBox="0 0 1920 1080"><g mask="url(&quot;#SvgjsMask1856&quot;)" fill="none"><rect width="1920" height="1080" x="0" y="0" fill="url(#SvgjsLinearGradient1857)"></rect><path d="M0 0L113.14 0L0 492.92z" fill="rgba(255, 255, 255, .1)"></path><path d="M0 492.92L113.14 0L907.1899999999999 0L0 603.79z" fill="rgba(255, 255, 255, .075)"></path><path d="M0 603.79L907.1899999999999 0L1117.01 0L0 828.4499999999999z" fill="rgba(255, 255, 255, .05)"></path><path d="M0 828.4499999999999L1117.01 0L1238.65 0L0 834.68z" fill="rgba(255, 255, 255, .025)"></path><path d="M1920 1080L1052.15 1080L1920 1051.36z" fill="rgba(0, 0, 0, .1)"></path><path d="M1920 1051.36L1052.15 1080L698.48 1080L1920 885.9099999999999z" fill="rgba(0, 0, 0, .075)"></path><path d="M1920 885.9100000000001L698.48 1080L294.38 1080L1920 812.95z" fill="rgba(0, 0, 0, .05)"></path><path d="M1920 812.95L294.3800000000001 1080L199.2200000000001 1080L1920 343.84000000000003z" fill="rgba(0, 0, 0, .025)"></path></g><defs><mask id="SvgjsMask1856"><rect width="1920" height="1080" fill="#ffffff"></rect></mask><linearGradient x1="50%" y1="100%" x2="50%" y2="0%" gradientUnits="userSpaceOnUse" id="SvgjsLinearGradient1857"><stop stop-color="rgba(26, 130, 123, 1)" offset="0"></stop><stop stop-color="rgba(221, 250, 248, 1)" offset="0.86"></stop></linearGradient></defs></svg>