<svg xmlns="http://www.w3.org/2000/svg" version="1.1" xmlns:xlink="http://www.w3.org/1999/xlink" xmlns:svgjs="http://svgjs.com/svgjs" width="500" height="500" preserveAspectRatio="none" viewBox="0 0 500 500"><g mask="url(&quot;#SvgjsMask1884&quot;)" fill="none"><rect width="500" height="500" x="0" y="0" fill="rgba(221, 250, 248, 1)"></rect><use xlink:href="#SvgjsG1891" transform="translate(0, 0)" fill="rgba(33, 168, 159, 1)"></use></g><defs><mask id="SvgjsMask1884"><rect width="500" height="500" fill="#ffffff"></rect></mask><g id="SvgjsG1889"><path d="M2.524 8.637H0.014V7.308h2.51v1.329zM3.656 4.576L1.884 2.804l0.935-0.935 1.772 1.772-0.935 0.935z m0 6.817l0.935 0.935-1.772 1.773-0.934-0.936 1.771-1.772z m4.997-8.884h-1.33V-0.002h1.33v2.511z m-1.33 10.952h1.33v2.51h-1.33v-2.509zM12.344 4.576l-0.96-0.935 1.796-1.772 0.935 0.935-1.772 1.772z m0 6.792l1.771 1.797-0.935 0.936-1.771-1.774 0.936-0.96z m3.643-4.06v1.329h-2.51V7.308h2.509z"></path><path d="M3.702 7.984a4.184 4.184 0 1 0 8.368 0 4.184 4.184 0 1 0-8.368 0"></path></g><g id="SvgjsG1890"><path d="M8.43 3.58a1.188 1.188 0 0 0 0-2.372 1.186 1.186 0 0 0 0 2.372"></path><path d="M9.314 3.844h-1.73L4.634 0.894A0.6 0.6 0 0 0 3.78 0.874a0.6 0.6 0 0 0-0.024 0.856l3.08 3.086v10.228a0.664 0.664 0 0 0 1.334 0V9.496h0.54v5.548c0 0.37 0.304 0.668 0.67 0.668 0.368 0 0.664-0.3 0.664-0.668L10.04 4.816 13.12 1.73a0.6 0.6 0 0 0-0.02-0.854 0.6 0.6 0 0 0-0.856 0.02L9.314 3.84z"></path></g><g id="SvgjsG1886"><path d="M10.336 4.978a1.109 1.109 0 0 0-0.8-0.333h-2.834a1.09 1.09 0 0 0-0.8 0.333L3.063 7.822a0.693 0.693 0 1 0 0.999 0.955l2.205-2.206v2.949H3.794c-0.457 0-0.823 0.366-0.823 0.823 0 0.233 0.091 0.443 0.252 0.594l2.784 2.789a0.839 0.839 0 0 0 1.417-0.892l-1.586-1.588 0.032 0.004h4.564l-1.593 1.587c-0.229 0.4-0.091 0.914 0.306 1.147a0.846 0.846 0 0 0 1.12-0.256l2.782-2.789a0.8 0.8 0 0 0 0.252-0.594c0-0.457-0.366-0.823-0.823-0.823H10.011V6.606l2.165 2.176a0.69 0.69 0 0 0 0.999-0.956L10.336 4.978zM8.146 4.354a1.353 1.353 0 1 0 0-2.706 1.353 1.353 0 0 0 0 2.709"></path></g><g id="SvgjsG1887"><path d="M11.063 3.332A1.177 1.177 0 1 0 11.058 0.978a1.177 1.177 0 0 0 0.005 2.354z"></path><path d="M5.182 6.316a0.59 0.59 0 1 1-0.85-0.817l1.974-2.272a0.592 0.592 0 0 1 0.455-0.214H9.618a0.764 0.764 0 0 1 0.538 0.217L11.977 5.049l1.511-1.506a0.61 0.61 0 0 1 0.866 0.853L12.533 6.235c-0.551 0.551-0.996 0.082-0.995 0.081l-1.12-1.12-1.742 2.016 1.6 1.6s0.334 0.313 0.142 0.936L9.522 13.742a0.764 0.764 0 1 1-1.481-0.345l0.736-3.276-1.813-1.767-1.565 1.742s-0.254 0.309-0.924 0.284l-3.168 0.009A0.764 0.764 0 0 1 0.551 9.796a0.747 0.747 0 0 1 0.761-0.925l2.725 0.013 4.036-4.676-1.053-0.004-1.834 2.112z"></path></g><g id="SvgjsG1888"><path d="M7.996 3.995c-1.111 0-2.014-0.895-2.014-1.998C5.982 0.894 6.884 0 7.996 0c1.112 0 2.013 0.894 2.013 1.997 0 1.103-0.902 1.998-2.013 1.998zM14.03 12.267l-1.585-5.521C11.811 4.539 9.964 4.607 9.964 4.607H6.027s-1.847-0.069-2.48 2.138L1.961 12.267c-0.151 0.516 0.133 0.91 0.584 1.04 0.45 0.129 0.911-0.098 1.03-0.511l1.541-5.382 0.753-0.001L3.405 16H12.586L10.122 7.413l0.752 0.001 1.542 5.382c0.118 0.413 0.579 0.64 1.03 0.511 0.451-0.129 0.736-0.523 0.584-1.04z" fill-rule="evenodd"></path></g><g id="SvgjsG1885"><path d="M1.135 8.57h1.423c0.108 0 0.208 0.054 0.268 0.142 0 0 0.271 0.41 0.542 0.816 0.15-1.331 0.673-5.983 0.673-5.983a0.322 0.322 0 0 1 0.3-0.284c0.155-0.01 0.294 0.094 0.331 0.246 0 0 0.682 2.858 1.004 4.208l0.427-1.21a0.322 0.322 0 0 1 0.301-0.214c0.134-0.001 0.256 0.083 0.302 0.21 0 0 0.633 1.72 0.76 2.067h1.236c0.108 0 0.208 0.054 0.267 0.142 0 0 0.271 0.41 0.542 0.816 0.15-1.331 0.673-5.983 0.673-5.983a0.321 0.321 0 0 1 0.631-0.039s0.681 2.857 1.004 4.209c0.212-0.6 0.428-1.208 0.427-1.208a0.32 0.32 0 0 1 0.602-0.004s0.634 1.72 0.76 2.067h1.262l0.067-0.128c0.613-1.055 1.061-3.009 1.061-4.432C16 2.193 14.678 0 12.102 0c-3.679 0-4.152 3.447-4.152 3.447S7.494 0.017 3.818 0.017C1.333 0.017 0 2.13 0 4.009c0 1.622 0.71 3.625 1.074 4.448l0.061 0.113z"></path><path d="M13.385 9.211a0.321 0.321 0 0 1-0.301-0.21S12.8 8.229 12.554 7.56c-0.23 0.654-0.491 1.394-0.492 1.394a0.318 0.318 0 0 1-0.319 0.213 0.318 0.318 0 0 1-0.295-0.245L10.618 5.44l-0.567 5.036a0.321 0.321 0 0 1-0.243 0.275 0.32 0.32 0 0 1-0.342-0.133s-0.778-1.17-0.935-1.406H7.243c-0.134 0-0.254-0.085-0.3-0.21l-0.531-1.442-0.492 1.395A0.318 0.318 0 0 1 5.6 9.166a0.32 0.32 0 0 1-0.296-0.245s-0.458-1.921-0.83-3.48c-0.221 1.964-0.566 5.034-0.566 5.034a0.321 0.321 0 0 1-0.586 0.141s-0.778-1.17-0.935-1.405H1.483c2.301 4.086 6.468 6.779 6.468 6.779S12.194 13.298 14.531 9.211h-1.146z"></path></g><g id="SvgjsG1891"><use xlink:href="#SvgjsG1885" transform="translate(0, 0) scale(3)" fill="rgba(33, 168, 159, 1)"></use><use xlink:href="#SvgjsG1885" transform="translate(0, 75) scale(3)" fill="rgba(33, 168, 159, 1)"></use><use xlink:href="#SvgjsG1886" transform="translate(0, 150) scale(3)" fill="rgba(33, 168, 159, 1)"></use><use xlink:href="#SvgjsG1886" transform="translate(0, 225) scale(3)" fill="rgba(33, 168, 159, 1)"></use><use xlink:href="#SvgjsG1887" transform="translate(0, 300) scale(3)" fill="rgba(33, 168, 159, 1)"></use><use xlink:href="#SvgjsG1887" transform="translate(0, 375) scale(3)" fill="rgba(33, 168, 159, 1)"></use><use xlink:href="#SvgjsG1888" transform="translate(0, 450) scale(3)" fill="rgba(33, 168, 159, 1)"></use><use xlink:href="#SvgjsG1888" transform="translate(75, 0) scale(3)" fill="rgba(33, 168, 159, 1)"></use><use xlink:href="#SvgjsG1886" transform="translate(75, 75) scale(3)" fill="rgba(33, 168, 159, 1)"></use><use xlink:href="#SvgjsG1888" transform="translate(75, 150) scale(3)" fill="rgba(33, 168, 159, 1)"></use><use xlink:href="#SvgjsG1885" transform="translate(75, 225) scale(3)" fill="rgba(33, 168, 159, 1)"></use><use xlink:href="#SvgjsG1889" transform="translate(75, 300) scale(3)" fill="rgba(33, 168, 159, 1)"></use><use xlink:href="#SvgjsG1885" transform="translate(75, 375) scale(3)" fill="rgba(33, 168, 159, 1)"></use><use xlink:href="#SvgjsG1888" transform="translate(75, 450) scale(3)" fill="rgba(33, 168, 159, 1)"></use><use xlink:href="#SvgjsG1886" transform="translate(150, 0) scale(3)" fill="rgba(33, 168, 159, 1)"></use><use xlink:href="#SvgjsG1885" transform="translate(150, 75) scale(3)" fill="rgba(33, 168, 159, 1)"></use><use xlink:href="#SvgjsG1889" transform="translate(150, 150) scale(3)" fill="rgba(33, 168, 159, 1)"></use><use xlink:href="#SvgjsG1890" transform="translate(150, 225) scale(3)" fill="rgba(33, 168, 159, 1)"></use><use xlink:href="#SvgjsG1886" transform="translate(150, 300) scale(3)" fill="rgba(33, 168, 159, 1)"></use><use xlink:href="#SvgjsG1890" transform="translate(150, 375) scale(3)" fill="rgba(33, 168, 159, 1)"></use><use xlink:href="#SvgjsG1890" transform="translate(150, 450) scale(3)" fill="rgba(33, 168, 159, 1)"></use><use xlink:href="#SvgjsG1886" transform="translate(225, 0) scale(3)" fill="rgba(33, 168, 159, 1)"></use><use xlink:href="#SvgjsG1885" transform="translate(225, 75) scale(3)" fill="rgba(33, 168, 159, 1)"></use><use xlink:href="#SvgjsG1889" transform="translate(225, 150) scale(3)" fill="rgba(33, 168, 159, 1)"></use><use xlink:href="#SvgjsG1886" transform="translate(225, 225) scale(3)" fill="rgba(33, 168, 159, 1)"></use><use xlink:href="#SvgjsG1887" transform="translate(225, 300) scale(3)" fill="rgba(33, 168, 159, 1)"></use><use xlink:href="#SvgjsG1890" transform="translate(225, 375) scale(3)" fill="rgba(33, 168, 159, 1)"></use><use xlink:href="#SvgjsG1888" transform="translate(225, 450) scale(3)" fill="rgba(33, 168, 159, 1)"></use><use xlink:href="#SvgjsG1885" transform="translate(300, 0) scale(3)" fill="rgba(33, 168, 159, 1)"></use><use xlink:href="#SvgjsG1888" transform="translate(300, 75) scale(3)" fill="rgba(33, 168, 159, 1)"></use><use xlink:href="#SvgjsG1887" transform="translate(300, 150) scale(3)" fill="rgba(33, 168, 159, 1)"></use><use xlink:href="#SvgjsG1886" transform="translate(300, 225) scale(3)" fill="rgba(33, 168, 159, 1)"></use><use xlink:href="#SvgjsG1887" transform="translate(300, 300) scale(3)" fill="rgba(33, 168, 159, 1)"></use><use xlink:href="#SvgjsG1888" transform="translate(300, 375) scale(3)" fill="rgba(33, 168, 159, 1)"></use><use xlink:href="#SvgjsG1886" transform="translate(300, 450) scale(3)" fill="rgba(33, 168, 159, 1)"></use><use xlink:href="#SvgjsG1886" transform="translate(375, 0) scale(3)" fill="rgba(33, 168, 159, 1)"></use><use xlink:href="#SvgjsG1887" transform="translate(375, 75) scale(3)" fill="rgba(33, 168, 159, 1)"></use><use xlink:href="#SvgjsG1886" transform="translate(375, 150) scale(3)" fill="rgba(33, 168, 159, 1)"></use><use xlink:href="#SvgjsG1885" transform="translate(375, 225) scale(3)" fill="rgba(33, 168, 159, 1)"></use><use xlink:href="#SvgjsG1889" transform="translate(375, 300) scale(3)" fill="rgba(33, 168, 159, 1)"></use><use xlink:href="#SvgjsG1889" transform="translate(375, 375) scale(3)" fill="rgba(33, 168, 159, 1)"></use><use xlink:href="#SvgjsG1886" transform="translate(375, 450) scale(3)" fill="rgba(33, 168, 159, 1)"></use><use xlink:href="#SvgjsG1888" transform="translate(450, 0) scale(3)" fill="rgba(33, 168, 159, 1)"></use><use xlink:href="#SvgjsG1889" transform="translate(450, 75) scale(3)" fill="rgba(33, 168, 159, 1)"></use><use xlink:href="#SvgjsG1889" transform="translate(450, 150) scale(3)" fill="rgba(33, 168, 159, 1)"></use><use xlink:href="#SvgjsG1886" transform="translate(450, 225) scale(3)" fill="rgba(33, 168, 159, 1)"></use><use xlink:href="#SvgjsG1887" transform="translate(450, 300) scale(3)" fill="rgba(33, 168, 159, 1)"></use><use xlink:href="#SvgjsG1889" transform="translate(450, 375) scale(3)" fill="rgba(33, 168, 159, 1)"></use><use xlink:href="#SvgjsG1886" transform="translate(450, 450) scale(3)" fill="rgba(33, 168, 159, 1)"></use></g></defs></svg>